/* XPM */
static char *_3f3f151a6d34ab0936d0516196107e16GrRugLqWJBP8Fqq[] = {
/* columns rows colors chars-per-pixel */
"50 50 30 1 ",
"  c None",
". c #1B1D1B",
"X c #1C1E1C",
"o c #1D1F1D",
"O c #1E201E",
"+ c #271E2A",
"@ c #321F38",
"# c #331F38",
"$ c #28202B",
"% c #3B1E44",
"& c #3D1E45",
"* c #3D1F46",
"= c #451C51",
"- c #461D52",
"; c #471E52",
": c #471E53",
"> c #511E60",
", c #551D64",
"< c #5B1D6D",
"1 c #651C79",
"2 c #6E1B86",
"3 c #6F1C87",
"4 c #701C87",
"5 c #7A1C94",
"6 c #7D1B98",
"7 c #841BA1",
"8 c #8E1BAF",
"9 c #991ABC",
"0 c #A31AC9",
"q c #C118F0",
/* pixels */
"                      OOOoooooooOO                ",
"                     ..OOOOOOOOoOO                ",
"                     ..OOOOOOOOOOO                ",
"                 OOO%==oOOOOOOOO*:=#O             ",
"                 OOO......OOOOOO9qq4O             ",
"                 OOO......OOOOOO9qq4O             ",
"                 OOO......OOOOOO9qq4O             ",
"                 ..OOOOO..OOOOOOOOOoO             ",
"               qq..OOOOO..OOOOOOOOOoOOOOOOO       ",
"            OoOOO..OOOOO..OoOOOOOOOoOOO999+O      ",
"          OOo..oOOO999OOOo.ooOOO..oOOOOOO3oO      ",
"          OOo...OOOqqqOOO...oOOO..OOOOOOO3oO      ",
"          OOo...OOOqqqOOO...oOOO..OOOOOOO3OO      ",
"          OOo...OOO448OOOo.ooOOO..OOOOOOOOOOoo    ",
"          OOo...OOOOOOOOOOOOo.....oOOOOOOOOoooq   ",
"          OOO...OOOOOOOOOOOOo.....oOOOOOOO>24=q   ",
"       qqqOOO...OOOOOOOOOOOOo.....oOOOOOOOOOOO6   ",
"      OOOOOOOOO...oOOOOOOOOO...OOOOOO9qqqqqqOO,   ",
"      OOOOOOOOO...oOOOOOOOOO...OOOOOO9qqqqqqOO,   ",
"      OOOOOOOOOo..oOOOOOOOOO...OOOOOO9qqqqqqOO:   ",
"      OOOOOOOOOOOOOOOOOOO......oOOOOO9qq0=::OOO   ",
"      OOOOOOOOOOOOOOOOOOO......oOOOOO9qq9OOOO#OOO ",
"      OoOOOOOOOOOOOOOOOOO......oOOOOO9qq9OOOO:OOO ",
"      ooooOOOOOOOO#444OOO...ooooOOOOO<795OOOO:::O ",
"      ...oOOOOOOOO=qqqOOO...OOOOOOOOOOOOOOOOO#OOO ",
"    .....OOOOOOOOO:qqqOoO...OOOOOOOOOOOOOOOOooO=O ",
"   ooOOO*:::=::OOOooo....OOOOOO599.o=OOOOOOOOOO4O ",
"  OOOOOO9qqqqqqOOOOOO.......OOOOOOOOOOOOo...OOO4O ",
"  OOOOOO8qqqqqqOOOOOOo......OOOOOOOOOOOOo...OOO4O ",
"  OOOOOO4qqqqqqOOOOOoo......OOOOOOOOOOOOo...OOO4= ",
"  OOOOOO4qqqqqqOOOOOOOOOO...OOOOOOOOOOOOo.....o4: ",
"  OOOOOO4qqqqqqOOOOOOOOOO...OOOOOOOOOOOoo......1: ",
"   OOOOO4qqqqqqOOOOOOOOOO...OOOOOOOOOOOOOo.....OO ",
"   ..OOOOOOOOOO...OOOOOOOqqqqqqOOOOOOOOOo...oOOOO ",
"   ..OOOOOOOOOO...OOOOOOOqqqqqqOOOOOOOOOo...OOOOO ",
"   ..OOoOOOOOOO...OOOOOOOqqqqqqOOOOOOOOOo...OOOOO ",
"   .....oOOOOOO...OOoo...qqq$=:OOOOOOOOOo...OOOOO ",
"   ......OOOOOO...OOOo...qqqOOOOOOOOOOOOo...OOOO  ",
"   .....ooOOOOO...OOOO...qqqOOOOOOOOOOOOo...OOOO  ",
"   OOo...OOOOOO...OOOO...222OOOOOOOOOOOOoooo::=O  ",
"   OOo...OOOOOO...OOOO......OOOOOOOOOOOOoOOOqqqo  ",
"   OOo...OOOOOO...OOOO......OOOOOOOOOOOOOOOOqqq   ",
"   OOo.ooOOOOOO...oOOOooo.o.OOOOOOOOOOOOOOOOqqq   ",
"       OoO.........OOOoOOOOOOOOOOOOOOOOOO...oO    ",
"       OOO.ooo.oo.oOOOOOOOOOOOOOOOOOOOOOO...O     ",
"       OOOOOoOOoOOoOOO...OOOOOOOOO9qq9OOOOOOO     ",
"       OOOOOOOOOOOOOOO...OOOOOOOOO9qq9OOOOOO      ",
"       OOOOOOOOOOOOOOO...OOOOOOOOO4qq9OOOOOO      ",
"           OOOOOOOOOOOOOOOOOOOOO...OOOOOOO        ",
"           OOOOOOOOOOOOOOOOOOOOO...OOOOOO         "
};
