/* XPM */
static char *b69c15434fec42de9323d53bb58efa3fB95XKIdXGsZ8xV5l[] = {
/* columns rows colors chars-per-pixel */
"50 50 187 2 ",
"   c None",
".  c #6C241D",
"X  c #782F1F",
"o  c #71291E",
"O  c #7B341E",
"+  c #611C23",
"@  c #6A2522",
"#  c #6F2921",
"$  c #732C20",
"%  c #74302A",
"&  c #7B3D21",
"*  c #7A3A34",
"=  c #7F423C",
"-  c #82391C",
";  c #8A421B",
":  c #87491F",
">  c #90451A",
",  c #944919",
"<  c #994D19",
"1  c #964916",
"2  c #9E5115",
"3  c #9B5218",
"4  c #9C5D1C",
"5  c #95511B",
"6  c #A55A15",
"7  c #AB5D14",
"8  c #9A661E",
"9  c #BE6C0F",
"0  c #BA670F",
"q  c #A46414",
"w  c #A56814",
"e  c #AC6C13",
"r  c #BB6C12",
"t  c #B56812",
"y  c #AC7719",
"u  c #B47414",
"i  c #BB7C14",
"p  c #BA7812",
"a  c #824820",
"s  c #8B5420",
"d  c #80423C",
"f  c #B67628",
"g  c #C26E0D",
"h  c #C7740C",
"j  c #CC7A0C",
"k  c #C9730A",
"l  c #D37D0A",
"z  c #C67710",
"x  c #854A44",
"c  c #8A534F",
"v  c #8E5752",
"b  c #96604D",
"n  c #976255",
"m  c #9B6960",
"M  c #A06F62",
"N  c #A37A76",
"B  c #AE851E",
"V  c #BC8314",
"C  c #D4830C",
"Z  c #DC8E0E",
"A  c #DE8608",
"S  c #DE9A0F",
"D  c #C48513",
"F  c #C38914",
"G  c #CA8B14",
"H  c #CB8510",
"J  c #CD9313",
"K  c #CC9A14",
"L  c #C99819",
"P  c #D69812",
"I  c #E68D06",
"U  c #E98F06",
"Y  c #EB9105",
"T  c #E8990B",
"R  c #F49401",
"E  c #F59B03",
"W  c #F29E08",
"Q  c #E29D11",
"!  c #CEA316",
"~  c #CAA91B",
"^  c #D6AD16",
"/  c #DCAD15",
"(  c #D8A414",
")  c #DBB918",
"_  c #E6A30F",
"`  c #EAAE0F",
"'  c #E8A30D",
"]  c #F7A406",
"[  c #F7A907",
"{  c #F3A20A",
"}  c #F6AB09",
"|  c #F8AE09",
" . c #F3B20E",
".. c #F8B40B",
"X. c #F8BC0E",
"o. c #F7BA0F",
"O. c #E4A510",
"+. c #E3AB12",
"@. c #F4A614",
"#. c #E4BD16",
"$. c #EDBD13",
"%. c #E8B112",
"&. c #F2B610",
"*. c #F4BB11",
"=. c #F9BB1A",
"-. c #C79124",
";. c #CEAE29",
":. c #F7A822",
">. c #F9B926",
",. c #F8B739",
"<. c #F9C00F",
"1. c #EBC415",
"2. c #E7C616",
"3. c #F6C412",
"4. c #F9C411",
"5. c #F5CB14",
"6. c #F9CC13",
"7. c #EFD116",
"8. c #EFD817",
"9. c #F9D314",
"0. c #F9DB15",
"q. c #F4D616",
"w. c #F9E417",
"e. c #F9E817",
"r. c #FAE918",
"t. c #F2E019",
"y. c #FAC526",
"u. c #FAD424",
"i. c #FADF22",
"p. c #FBD439",
"a. c #F9E529",
"s. c #A8807D",
"d. c #B28772",
"f. c #B78F79",
"g. c #DBB15B",
"h. c #F4AF4D",
"j. c #F9BA48",
"k. c #F6B857",
"l. c #D1A57E",
"z. c #E6BC7C",
"x. c #E6C24E",
"c. c #FDCA4B",
"v. c #FCC747",
"b. c #FCDE44",
"n. c #FCD14B",
"m. c #FCD647",
"M. c #FCCB56",
"N. c #FDD55C",
"B. c #FDD85C",
"V. c #FCD954",
"C. c #FDE45B",
"Z. c #FDDC62",
"A. c #FACC7D",
"S. c #EAC96B",
"D. c #FDE066",
"F. c #FEE36B",
"G. c #FEEB75",
"H. c #FBE777",
"J. c #AB8380",
"K. c #B18C89",
"L. c #C6AEAC",
"P. c #C8ADAB",
"I. c #C3A6A4",
"U. c #CFB8B6",
"Y. c #D6BBA3",
"T. c #FCDB94",
"R. c #FFEE84",
"E. c #FFF089",
"W. c #FDE1A8",
"Q. c #FEEBBA",
"!. c #DFD0CD",
"~. c #DDD3D3",
"^. c #D6C9C8",
"/. c #E2D3D1",
"(. c #E2DEDD",
"). c #FAEECF",
"_. c #FEF0C9",
"`. c #ECE3DE",
"'. c #FFF5D2",
"]. c #FFF7DC",
"[. c #E6E6E6",
"{. c #EAE1E1",
"}. c #ECECEC",
"|. c #F0E9E8",
" X c #F3F3F3",
".X c white",
"XX c #FDFDFD",
/* pixels */
"                                                                                                    ",
"[. X.X[..XXX[..X}.[..X[. X.X[..XXX[..Xs.. @ $ # # # $ @ . J. X[..X[. X.X[..X.X[..X}.[..X[.[..X[.[..X",
".X X[..X[.}..X[. X.X[..X X[..X~.# # # # , t E R R E E 0 < $ . # # {. X[..X[.[..X[. X.X[..X.X[..X.X[.",
".X X[..X[.}..X[.XX.X[..X X[.d $ # < I R R R R R R R R R R R Y < # $ d [..X[.[..X[.XX.X[..X.X[..X.X[.",
"[. X.X[..XXX[..X}.[..X[.@ @ $ Y R R R R 7 . b d.f.d.n . 7 R R R R R $ @ . .X.X[..X}.[..X[.[..X[.[..X",
".X X[..X[.}..X[.XX.X= o # R R R l M '.b.9.9.9.9.6.6.6.4.3.4.4.4 C R R R @ . x .X[.XX.X[..X.X[..X.X[.",
"[. X.X[..XXX[..X}.@ $ r R R j ;.0.0.0.0.9.9.9.9.9.6.6.4.4.X.4.X.X.G l R R h @ $ .X}.[..X[.[..X[.[..X",
"[. X.X[..X X[..X= o Y R R @ w.w.0.0.0.0.9.9.9.9.6.6.6.4.4.4.4.X.X...o.@ R R R @ = }.[..X[.[..X[.[..X",
".X X[..X[.}.XX@ $ R R R ) w.0.0.0.0.0.0.9.9.9.6.9.6.4.4.4.<.<.X.X.......Z E R R # = .X[..X.X[..X.X[.",
"[. X.X[.XXXX@ $ k.R O e.w.w.w.w.0.0.9.0.9.9.9.9.6.6.6.6.4.4.<.<.X.......| } O R R # # .X[.[..X[.[..X",
"[. X.X[..X/.o j.R A w.w.w.w.w.0.w.0.0.9.0.9.9.9.9.6.6.4.4.<.<.<.X... . .| [ [ I R > $ !.[.[..X[.[..X",
".X X[..X[.# r R R r.w.e.w.! ^ w.0.0.0.0.9.9.9.6.6.6.6.4.4.4.4.X.X...q q | [ [ [ E R h @ .X.X[..X.X[.",
"[. XXX[.. @ h.I ) e.e.e.q.%.X.u w.0.0.0.9.9.9.9.9.6.4.6.4.4.X.X.X.$. .} _ [ [ [ C R R # . [..X[.[..X",
"}. XXXL.# z.R a e.e.e.e.1.6.4.O.0.0.0.9.9.9.9.9.6.6.6.4.4.4.X.4.X.9.<.....[ ] ] E r R I @ L.XX}.[.XX",
".X X[.$ # A.j r.e.e.H.C.0.4.X.F 0.0.0.9.0.9.9.9.6.6.6.4.4.4.X.4.o./ X...T E E ] ] { l R $ $ [.XX.X[.",
"[. X(.$ ).R ~ r.e.G E.0.9.6.*.F 0.0.0.0.9.( q K K G w *.4.4.X.X.o.$.4...} E E w W E z R R # (.[.[..X",
"XX X% @ '.R r.r.r.! E.E.b.4.4. .2.0.0.0.i 0.6.4.4.X...S w <.<.X.V $.*...[ E E e ] E E E R @ % XXXX}.",
"XX X$ '.:.@ e.r.r.r.f S.-.R.y.o.[ L ^ 0.9.9.F.Z.Z.Z.n.| [ Z 4.K 5.6.6.%.e T p ] E E E @ R R $ .X.X[.",
"[. X$ '.R 8.r.r.w.r.w.w.w.w.g.>.[ Y e.0.F.F.F.D.Z.Z.Z.N.N.[ ` 0.9.9.j ..} [ [ ] ] E R Y R R @ |.[..X",
"XXI.. T.R r.r.r.r.w.w.w.w.w.r.H.[ 9.w.F.F.F.F.D.Z.Z.Z.N.N.c.E w.#.#...| } } [ [ E E E R R R # I..X[.",
" X. m R r r.w.r.w.e.e.w.w.w.w.0.H.e.a.F.G.F.F.Z.Z.Z.Z.N.N.N.E R 2.......| [ ] ] E E E R 9 R & .  X X",
"[.. Y.R @ r.r.r.r.r.w.e.w.0.w.0.e e.C.i.b.F.F.Z.Z.Z.N.N.N.c.B.R J ......| [ [ [ ] ] E R o R g $ [..X",
".X$ ].R a r.r.e.e.w.e.w.w.w.w.w.! w.w.0.9.9.6.V.D.p...| [ ] E R z X.....| [ [ [ E E E E - R R @ .X[.",
"[.@ ].R 8 r.e.e.e.e.e.w.w.w.0.0.J w./ 0.1.9.6.4.4......._ $.E E J ......| [ [ ] ] E R R < R R $ [..X",
"}.@ ].R B r.r.r.e.e.t.e.e.w.0.w.e w.p 9.9.9.9.&.X.%.6.<.4.4.E >.X.......| [ ] ] ] E E R 7 R R # [.XX",
".X$ ].R y r.r.r.e.e.w.w.e.0.w.w.w.e.e.0.9.9.9.4.X.&.6.6.4.*.W A X.......| } [ ] E E E R 6 R R # .X[.",
"[.@ Q.R s r.e.r.e.e.e.w.t.w.w.0.7.a.w.! %.#.9.4.4.X.Q +._ W v.:.X.....| } } ] ] ] E E R ; R E $ [..X",
"XX. l.R + r.e.r.e.e.w.w.w.w.0.w.6 E.E.R.R.R.6.6.( o.>.M.c.c.M.c.O.....| | } [ ] ] E R R + R l $ XX[.",
".X. ; R 7 r.r.r.e.e.w.w.w.w.w.0.y e.0.0.0.u.F.i D O...| [ ] E R ` ......| [ [ ] E E E R 7 R 6 @ .X[.",
"[.x @ R U r.e.r.e.e.e.w.w.w.w.w.0.e K 0.p.Z.F.m.m.X...| } [ j q X..... .| [ [ ] ] E E E I R + x [..X",
".X`.. j.R e.r.r.r.e.e.w.w.0.w.0.0.F o.0.9.C.F.Z.V.Z.....[ [ 5.` ..o...| | | [ ] ] E E R R R # |..X[.",
" X Xo A.R = e.r.e.e.e.w.w.K e 7.V  ...0.9.J u.3.G y...Z [ W 6.*.` S u } | [ } ] E E R & R R #  X X X",
"[. Xo r R 3 e.r.e.e.w.e.8.E.i.u.6.X.o.} V 0.e K 6.F q 6.i 5.6.4.&.| ] Y | } ] ] ] E @.3 R g @ [.[..X",
".X XN # R R r.r.w.e.w.w.q e.e.q.6.4...1.9.9.6.9.9.6.6.6.4.F 1.X...] E E | } [ ] ] Q.E R R $ N .X.X[.",
"[. X.X# $ R - e.e.e.e.w.^ G.7.0.6.o.u 9.0.9.9.9.6.6.6.4.4.4.+.&. .[ R E | } ] ] @.E - R $ $ .X[.[..X",
"[. X.X. # R R e.e.e.e.w.w.u x.3.6.X...0.9.9.6.9.6.6.6.4.4.4.6.4...} C S | } [ ] '.< R R $ . .X[.[..X",
".X X[..X. , R ; e.w.e.w.w.w.0.0.6.&. .0.9.9.9.9.6.6.6.X.4.=.4.4.X.H ..| | } [ W.] R R 1 $ .X[..X.X[.",
"[. X.X[. X# R R 6 e.e.e.w.w.0.2.6.O.w 0.9.9.9.6.6.6.6.4.4.<.e 6.Q ......| } j.j.7 R R . [.[..X[.[..X",
"XX X[.XX}.d # R R $ e.e.w.0.w.0.0.0.0.0.9.9.9.9.6.6.6.4.4.4.<.X.o.....| | _.W.& R R $ x XX X}.XXXX[.",
".X X[..X[. X# 2 R R 8 w.w.w.w.w.0.0.0.0.9.9.9.9.9.6.6.6.4.4.<.X.X.......,.T.4 R R $ @ [..X.X[..X.X[.",
"[. X.X[..XXX(.# # R R > w.w.0.0.0.0.0.0.9.9.9.6.6.6.6.4.4.4.4.X.......T.,.; R R @ @ (.XX[.[..X[.[..X",
".X X[..X[.}..X^.# # R R I ~ w.w.0.0.0.0.9.9.9.9.6.6.6.6.4.4.X.4.o.=.M.G U R R # . XX.X[..X.X[..X.X[.",
".X X[..X[.[..X[.}.$ - R R I @ 0.0.0.0.0.9.0.9.6.9.6.6.4.4.4.X.X.=...@ I R R - # (.XX.X[..X.X[..X.X[.",
"[. X.X[..XXX[..X}.[.# # h R R R @ 0.0.0.9.9.9.9.6.6.6.4.4.X.4.4.@ E R R j o # [..X}.[..X[.[..X[.[..X",
".X X[..X[.}..X[.XX.X[.U.$ # 0 R R R R $ 8 L 0.6.9.6.9.L 4 $ R R R R 9 # $ L.[..X[.XX.X[..X.X[..X.X[.",
".X X[..X[.}..X[. X.X[..X!.# # o R R R R R R j 7 7 7 l R R R R R R $ # # /.[.[..X[. X.X[..X.X[..X.X[.",
"[. X.X[..XXX[..X}.[..X[. X.X[.@ $ @ @ h R R R R R R R R R k @ # # .  X.X[..X.X[..X}.[..X[.[..X[.[..X",
".X X[..X[.[..X[.XX.X[..X X[..X[.}.P.* @ $ $ # # # # $ @ # # * P.[..X X[..X[.[..X[. X.X[..X.X[..X.X[.",
" X X X X X X X X X X X X X X X X X X X X~.K.c $ # # v K.~. X X X X X X X X X X X X X X X X X X X X X",
"                                                                                                    "
};
