/* XPM */
static char *_dad038a3ca04ab5e8886e0d3837bff3HD00eYCqlIvDIsBA[] = {
/* columns rows colors chars-per-pixel */
"50 50 4 1 ",
"  c None",
". c #1B1D1B",
"X c #1E201E",
"o c #C118F0",
/* pixels */
"                                                  ",
"                                                  ",
"                                                  ",
"                                                  ",
"                                                  ",
"                                                  ",
"                                                  ",
"                                                  ",
"                                                  ",
"                      ..ooooo.                    ",
"                      ..ooooo.                    ",
"                   oo....oooooo.                  ",
"                   oo....oooooo.                  ",
"                   ..ooo.ooooooo                  ",
"                ooo..ooo.oooooooooooo             ",
"              ooooooooooo..oo..oooooo             ",
"              ooooooooooo..oo..oooooo             ",
"              ooooooooooo..oo..oooooo             ",
"              ooooooooooooo....oooooo..           ",
"             oooooooooooooo....oooooooo           ",
"           ooooooooooooooo..ooooooooooo           ",
"           oooooooooooooooo.oooooooooo.           ",
"            ooooooooooooo....ooooooooo.           ",
"            ooooooooooooo...oooooooooo.XX         ",
"            ..ooooooooooo..oooooooooo.ooX         ",
"          ....ooooooooooo..oooooooooo.ooX         ",
"         ooooooooooooo....ooooooooo..oooX         ",
"         ooooooooooooo....ooooooooo..oooX         ",
"         ooooooooooooooo..ooooooooo....oX         ",
"         ooooooooooooooo..ooooooooo....oX         ",
"         ..ooooooo..ooooooooooooooo..oooX         ",
"         ..ooooooo..ooooooooooooooo..oo.X         ",
"         ....ooooo..oo..ooooooooooo..oo.          ",
"         ....ooooo..oo..ooooooooooo..oo.          ",
"         XX..ooooo..oo..ooooooooooo..ooo          ",
"         XX..ooooo..oo....oooooooooooooo          ",
"            oo.......ooooooooooooooo..X           ",
"            oo.......ooooooooooooooo..            ",
"            ooooooooooo..ooooooooooooo            ",
"            ooooooooooo..ooooooooooooo            ",
"              ooooooooooooooo..ooooo              ",
"                                                  ",
"                                                  ",
"                                                  ",
"                                                  ",
"                                                  ",
"                                                  ",
"                                                  ",
"                                                  ",
"                                                  "
};
