/* XPM */
static char *_1c54ff6a70f41efde25344c99ef5ef3jm6ow8WRm13sntUn[] = {
/* columns rows colors chars-per-pixel */
"50 50 86 1 ",
"  c #18080D",
". c #101010",
"X c #16060B",
"o c #3E0314",
"O c #2E000C",
"+ c #30000E",
"@ c #2F000D",
"# c gray5",
"$ c #760016",
"% c #4C0016",
"& c #080001",
"* c #D40000",
"= c #710019",
"- c #25000B",
"; c #38000D",
": c #4A0014",
"> c #420011",
", c #A10000",
"< c #510014",
"1 c #490013",
"2 c #040001",
"3 c #A40000",
"4 c #0D0306",
"5 c #37000C",
"6 c #4B0015",
"7 c #210D12",
"8 c #4F0012",
"9 c #2C0511",
"0 c #410010",
"q c #50021A",
"w c #020202",
"e c #600014",
"r c #49000C",
"t c #5F0013",
"y c #340312",
"u c #51000D",
"i c #180409",
"p c #44091A",
"a c #59011C",
"s c #0E0E0E",
"d c #610015",
"f c #330211",
"g c #26000C",
"h c #1E010B",
"j c #3D000C",
"k c #070707",
"l c #470216",
"z c #9F0000",
"x c #9B0000",
"c c #510015",
"v c #500013",
"b c #A60000",
"n c #6E0016",
"m c #950000",
"M c #770017",
"N c #520016",
"B c #430012",
"V c #4E0011",
"C c #50000C",
"Z c #3E0008",
"A c #4D081C",
"S c #9A0018",
"D c #201015",
"F c black",
"G c #4E0018",
"H c #B70000",
"J c #0C0C0C",
"K c #7D0000",
"L c #270005",
"P c #48000C",
"I c #3D0212",
"U c #7F0019",
"Y c #200005",
"T c #9C0000",
"R c #A50000",
"E c #570013",
"W c #241419",
"Q c #440013",
"! c #45000F",
"~ c #A70000",
"^ c #5A1529",
"/ c #A20000",
"( c #322227",
") c #231318",
"_ c #27171C",
"` c #1F0F14",
/* pixels */
"                               ...             XXX",
"                               ...             XXX",
"                               ...             XXX",
"   oooOOO+++@@@@###$$$%%%&&&***%%%%%%====---***   ",
"   oooOOO+++@@@@###$$$%%%&&&***%%%%%%====---***   ",
"   oooOOO+++@@@@###$$$%%%&&&***%%%%%%====---***   ",
"   ;;;**********:::>>>OOO***,,,<<<111----***,,,222",
"   ;;;**********:::>>>OOO***,,,<<<111----***,,,222",
"   ;;;**********:::>>>OOO***,,,<<<111----***,,,222",
"   OOO,,,333::::444###***,,,,,,>>>%%%5555666%%%   ",
"   OOO,,,333::::444###***,,,,,,>>>%%%5555666%%%   ",
"   OOO,,,333::::444###***,,,,,,>>>%%%5555666%%%   ",
"   777,,,8889999999000qqqwww000eeerrr,,,,ttt888   ",
"   777,,,8889999999000qqqwww000eeerrr,,,,ttt888   ",
"   777,,,8889999999000qqqwww000eeerrr,,,,ttt888   ",
"   777,,,8889999999000qqqwww000eeerrr,,,,ttt888   ",
"   :::yyyuuuiiiiOOOOOOOOO%%%>>>ppp%%%aaaa%%%>>>   ",
"   :::yyyuuuiiiiOOOOOOOOO%%%>>>ppp%%%aaaa%%%>>>   ",
"   :::yyyuuuiiiiOOOOOOOOO%%%>>>ppp%%%aaaa%%%>>>   ",
"   sssddd888*************fffggg***>>>OOOOhhhjjj   ",
"   sssddd888*************fffggg***>>>OOOOhhhjjj   ",
"   sssddd888*************fffggg***>>>OOOOhhhjjj   ",
"   %%%kkklll%%%%zzz,,,xxxccciii,,,---*******,,,   ",
"   %%%kkklll%%%%zzz,,,xxxccciii,,,---*******,,,   ",
"   %%%kkklll%%%%zzz,,,xxxccciii,,,---*******,,,   ",
"   OOO***,,,6666vvvbbb,,,888>>>nnnOOOmmmm,,,>>>   ",
"   OOO***,,,6666vvvbbb,,,888>>>nnnOOOmmmm,,,>>>   ",
"   OOO***,,,6666vvvbbb,,,888>>>nnnOOOmmmm,,,>>>   ",
"   %%%%%%MMMNNNNBBB%%%333VVV000fffCCC,,,,>>>%%%   ",
"   %%%%%%MMMNNNNBBB%%%333VVV000fffCCC,,,,>>>%%%   ",
"   %%%%%%MMMNNNNBBB%%%333VVV000fffCCC,,,,>>>%%%   ",
"   ZZZvvv666AAAA%%%tttnnn%%%OOO:::SSS%%%%rrr%%%DDD",
"   ZZZvvv666AAAA%%%tttnnn%%%OOO:::SSS%%%%rrr%%%DDD",
"   ZZZvvv666AAAA%%%tttnnn%%%OOO:::SSS%%%%rrr%%%DDD",
"   OOOFFF%%%>>>>>>>%%%>>>OOO***GGG888OOOO***,,,   ",
"   OOOFFF%%%>>>>>>>%%%>>>OOO***GGG888OOOO***,,,   ",
"   OOOFFF%%%>>>>>>>%%%>>>OOO***GGG888OOOO***,,,   ",
"   ******HHH6666JJJKKKLLLkkk***,,,%%%PPPP999III   ",
"   ******HHH6666JJJKKKLLLkkk***,,,%%%PPPP999III   ",
"   ******HHH6666JJJKKKLLLkkk***,,,%%%PPPP999III   ",
"   ******HHH6666JJJKKKLLLkkk***,,,%%%PPPP999III   ",
"   %%%,,,,,,UUUUYYYTTT%%%OOORRR,,,,,,8888EEEttt   ",
"   %%%,,,,,,UUUUYYYTTT%%%OOORRR,,,,,,8888EEEttt   ",
"   %%%,,,,,,UUUUYYYTTT%%%OOORRR,,,,,,8888EEEttt   ",
"WWWQQQ!!!~~~%%%%%%%^^^666;;;,,,,,,///,,,,888666   ",
"WWWQQQ!!!~~~%%%%%%%^^^666;;;,,,,,,///,,,,888666   ",
"WWWQQQ!!!~~~%%%%%%%^^^666;;;,,,,,,///,,,,888666   ",
"(((   )))   ____```                               ",
"(((   )))   ____```                               ",
"(((   )))   ____```                               "
};
