/* XPM */
static char *b0be3c70f44e4a4ff814693d6f6a49c6MfQZTECGbv7tfaJn[] = {
/* columns rows colors chars-per-pixel */
"50 50 178 2 ",
"   c None",
".  c #050301",
"X  c #0A0602",
"o  c #0D0905",
"O  c #0C0B0B",
"+  c #110702",
"@  c #130B05",
"#  c #190E06",
"$  c #120E0B",
"%  c #180F08",
"&  c #171007",
"*  c #1D1107",
"=  c #14100C",
"-  c #1C1309",
";  c #141313",
":  c #191715",
">  c #1B1815",
",  c #1C1B1B",
"<  c #211307",
"1  c #23150A",
"2  c #28170A",
"3  c #25190C",
"4  c #2B1B0D",
"5  c #331E0D",
"6  c #231710",
"7  c #241B11",
"8  c #2B1D11",
"9  c #201E1C",
"0  c #34210E",
"q  c #3A230F",
"w  c #2D2113",
"e  c #23211E",
"r  c #29231F",
"t  c #332312",
"y  c #3B2612",
"u  c #372816",
"i  c #3D2914",
"p  c #332719",
"a  c #372819",
"s  c #3C2C1A",
"d  c #242323",
"f  c #282726",
"g  c #2C2926",
"h  c #2C2B2A",
"j  c #302921",
"k  c #312E2D",
"l  c #33312D",
"z  c #39342C",
"x  c #3E3A2D",
"c  c #353433",
"v  c #393634",
"b  c #3B3936",
"n  c #3C3B3A",
"m  c #402714",
"M  c #442C15",
"N  c #4A2E15",
"B  c #442E1A",
"V  c #482F18",
"C  c #4B3117",
"Z  c #45321D",
"A  c #4B331A",
"S  c #4E391C",
"D  c #513215",
"F  c #51361C",
"G  c #583619",
"H  c #54391D",
"J  c #5E3B1C",
"K  c #643E1F",
"L  c #423421",
"P  c #4B3621",
"I  c #4D3A23",
"U  c #5D3622",
"Y  c #543C23",
"T  c #593E24",
"R  c #413D35",
"E  c #413E3D",
"W  c #613D25",
"Q  c #64421F",
"!  c #6B421F",
"~  c #564027",
"^  c #5C4124",
"/  c #5E4329",
"(  c #4B4033",
")  c #43413E",
"_  c #49453E",
"`  c #554A3C",
"'  c #634422",
"]  c #694422",
"[  c #664927",
"{  c #634529",
"}  c #654A2C",
"|  c #6B4C2D",
" . c #6F512F",
".. c #71532D",
"X. c #6C4D30",
"o. c #6D5133",
"O. c #725031",
"+. c #444342",
"@. c #494745",
"#. c #4B4947",
"$. c #4D4B4A",
"%. c #544F44",
"&. c #514E4D",
"*. c #53504E",
"=. c #5A584D",
"-. c #555352",
";. c #595655",
":. c #5B5957",
">. c #5D5A5A",
",. c #655F55",
"<. c #615E5D",
"1. c #63605F",
"2. c #68675F",
"3. c #656362",
"4. c #696666",
"5. c #6B6866",
"6. c #6B6968",
"7. c #6C6968",
"8. c #6D6A68",
"9. c #6E6B69",
"0. c #6D6B6A",
"q. c #6F6B6A",
"w. c #6F6C68",
"e. c #6F6C6A",
"r. c #6D6C6B",
"t. c #6D6C6C",
"y. c #6F6D6D",
"u. c #6F6E6D",
"i. c #6D6B6A",
"p. c #716D6B",
"a. c #716E6B",
"s. c #716E6D",
"d. c #706D6C",
"f. c #73706F",
"g. c #74706E",
"h. c #73706D",
"j. c #716F70",
"k. c #737170",
"l. c #767271",
"z. c #767572",
"x. c #747474",
"c. c #777676",
"v. c #747373",
"b. c #797675",
"n. c #797877",
"m. c #7B7876",
"M. c #797877",
"N. c #7A7A79",
"B. c #7E7B78",
"V. c #7D7A7A",
"C. c #7D7978",
"Z. c #7F7D7D",
"A. c #7D7B7A",
"S. c #817F7B",
"D. c #807F7E",
"F. c #807F7F",
"G. c #7F807B",
"H. c #83807F",
"J. c #81807F",
"K. c #838182",
"L. c #858381",
"P. c #848382",
"I. c #898685",
"U. c #8B8989",
"Y. c #8D8F8C",
"T. c #8D8C8C",
"R. c #8C8B8B",
"E. c #908E8D",
"W. c #95918E",
"Q. c #929290",
"!. c #979695",
"~. c #939292",
"^. c #989696",
"/. c #9A9A97",
"(. c #9C9A98",
"). c #A2A09F",
"_. c #A5A4A2",
"`. c #A8A6A6",
/* pixels */
"                                                                                                    ",
"                                                                                                    ",
"                                        h n *.E n n n v n f d                                       ",
"                                  g h $.u.u.-.F.>.U.`.`.).Z.$., g f                                 ",
"                          k v 4.q.R.$.-.;.3.#.3.n 4.z.B.h.3.*.n.c.1.n f d                           ",
"                        g +.-.c.q.F.$.$.>.3.;.#.c 4.m.S.z.>.n K.-.3.!.Y.@.r                         ",
"                      *.: f v 4.4.6.u.&.3.1.>.+.v k.B.B.u.-.c c.#.>.T.W.u.-.c ,                     ",
"                  +.@.$.K.v , -.>.>.e.3.e.h.h.#.v v.a.0.0.$.t.k.&.-.>.n 1.K.N.4.v 9                 ",
"                j E :.1.j.0.k +.-.:.1.x.e.A.z.+.h 0.9.a.p.v c.0.#.-.n >.a.L.V.>.n c ,               ",
"              c v *.;.-.1.d.$.h +.1.6.e.$.$.v 9 : *.>.0.0.c <.>.$.>.+.>.a.0.<.>.d l )               ",
"            #.@.&.h v n -.*.-.f f d f h $ O . . . X o X o > , ; k c 0.v.s.&.-.+.b +.k l d           ",
"            k v >.b n $.>.<.>.h : 9 : O o . o o . : - - * 3 & : ; > 4.3.1.-.+.c v ;.0.d c           ",
"          &., d c &.$.:.>.4.>.d d O . = & 1 3 * X L M y t C 3 w = ; -.;.$.+.c c @.e.Z.n f d         ",
"        @.g @.+.h , h +.>.k e . . o @ Z i M M 2 X Y A H F ] M ' 4 2 = $ f +.c v A.N.V.4.E 9         ",
"      e : c <.q.3.c h v c , O X o * 1 Y M M M 3 . Y F Y H Q M | y t 1 $ O 9 f $.A.a.3.:.c d n       ",
"      #.v c ;.0.4.>.*.n , O . $ & 1 1 } M M B 1 . ~ H H H Q N ..A B t = X ; c ;.a.>.:.#.u.M.d ;     ",
"      c +.;.z.~.c.>.c 9 . o & 1 4 m 2 | M M A * . I H Y D H m ..A C A 4 & - , ) l.J.U.4.;.-.d ,     ",
"    %.v @.$.-.3.6.N.l ; . & - 4 t F q X.V V F * . I F Y N D y | A C H t * 3 , f E.E.v.1.;.-.h : O   ",
"    _ ) @.$.*.*.&.n , $ o - 8 0 M N 0 | V V F # . I F H N N y [ F F J q 1 w = d 6.s.p.3.<.>.c , $   ",
"    e n E %.>.<.>.d O X & p Z y V J q X.N N M 1 . Y P F M M q [ A C Y C 5 A 1 & k #.-.#.+.c ; ; e   ",
"  R f , k E $.$.+., O o & u I M B J q O.A N N * . I S S M m 5 ' F C H C 5 Y 4 * : , 9 , ; ; d h d   ",
"  _ c k h 9 f f f ; o o - Z ~ M M J y O.M m M # . Y A V y y 2 ^ F C H C 5 T t 3 O O . , d h n n ,   ",
"  E d c ) #.n v 9 O o - < H } N M Q 0 O.N N m # . Y B M y 0 4 G M M F N 5 { M 4 : d n c.N.k.3.+.,   ",
"  b c >.3.r.<.:.f o $ - 1 ~ o.C V K q | N N m # . Y C C y 4 2 H N i C D 5 { M t : 9 n V.k.3.<.n ;   ",
"  c E <.>.1.j.3.h o $ 1 4 { o.A D W y X.N m m # . Y N B y 4 2 H C i M N 5 ' M M ; , n j.3.1.;.c ;   ",
"; , 9 9 f h c b ; o # 4 5 [ | F N K 5 W y M V @ . Y Y V y 2 < C N y A D q ~ M y $ , h c h h , ; O   ",
"-.c.F.c.T.^.Z.~.h o # 8 t { } M M J q W y M B # . Y A V m 3 # A A y V N 0 H M M # g j.U.K.K.n.4.-.  ",
"-.+.$.$.-.;.$.-.d o * 4 y | { M y K y U m A M # . Y F B q 3 * F N M B N q T C C = h -.3.3.1.@.v c ; ",
">.@.$.$.$.*.s.-., o 1 0 m { { y V G 0 T B Z y # X ~ A M q 4 * S m m D D q T A C - g $.;.;.&.+.@.) ; ",
"$.n +.@.$.*.3.) ; X % 6 0 Y P 2 5 y 8 A 0 y t @ . A t 4 4 < @ u 5 4 t 5 2 N t 5 % f ) $.$.+.@.$.n O ",
"+.d h n +.@.c d O X $ - 8 P Z 8 w t 8 s 8 t 4 @ . u 3 3 8 - @ t 8 3 0 8 6 u 8 3 o d c n n +.@.+.h O ",
"  O O O ; : ; : O o ; 9 g k z v c E &.,.2.5.0.n O C.5.1.=.b z c b +.c k k k c h ; O O O O O O O X   ",
"  O O : , , , , O , g E &.;.:.I.4.z g ) I._ l ; . *.v _ /.$.l v R n.#.) R v b.4.= , , , , , : : O   ",
"  O ; , d d d , ; O , 9 9 9 9 k R e z ) P.$.x O . l r R U.&.x , ; g 9 = = = g v X , , , d d d , O   ",
"  d h c +.-.-.n , . X + + 5 2 + @ & /.-.n c N.X . & Y.1.c c x.( * + & o . # @ # X e n q.c.c.4.;.f   ",
"  d h v -.;.>.+.; . o # % M y 2 1 3 W.1.#.$.P.o . 7 P.6.) &.J.` 2 < < @ @ 4 2 2 @ e ) 3.t.4.-.#.,   ",
"  d h n #.>.4.n ; o - 4 q W T 8 0 8 R N.#.x.J.& . p v x.r.u.G.` i 0 u < * M y y = d n >.-.&.$.n ,   ",
"  X ; , 9 f d , O o 1 5 5 T Y t 0 4 & & d k 3 @ . p & & > h - u y y 0 < & i C M - O , , , 9 d , O   ",
"  d &.q.j.N.>.n ; o * 8 4 Y I 8 0 3 & O . X & & . w > @ . X o u 0 0 w 1 < i C M - h >.4.3.3.x.6.h   ",
"  : f n E n 9 , O o # 8 0 P P 8 4 8 1 w & - 4 & . p w 1 & o & s y 0 0 - - M M y & f n ;.;.&.$.E ,   ",
"  O $ g b v c h ; o % 3 1 Y M 3 3 4 * s t s t + . w 8 3 1 1 & Z t t t * * u i i & k c v n +.v f O   ",
"  O h <.e.6.3.&.; X % 3 1 A B 3 4 8 * p 0 s w + . w 3 3 - 1 & s t 0 t * # t y t - g d f h h d ; O   ",
"  , c :.1.3.>.&.; o & 2 1 A B 6 3 4 # p 8 u t o . e 3 - - 1 & w 4 t w * @ t t 5 & f f n n n f , O   ",
"  O , , d h f , O . o & $ B s 1 3 3 # w 4 t w o . 3 4 3 1 - o 3 4 3 4 * # w 3 4 & $ , c d f h f ;   ",
"  e 4.j.c.Y.c.3.9 . o & # s y 1 3 1 @ w 3 w 4 o . 7 3 3 1 * @ w 2 2 w - # w 4 4 O d -.^.P.Z.T.~.n   ",
"  , +.:.;.<.:.+., X o # # t t - 1 - @ w 3 t 3 o . 7 4 3 < & + 4 1 1 0 < # t 2 4 O d c 6.1.>.-.&.d   ",
"  d n 3.;.$.*.E : . o @ @ w 8 1 2 1 + w 3 t 2 . . > 4 3 & + o 3 < < 4 - # 8 3 4 O d c ;.3.;.&.$.d   ",
"  : h >.&.@.#.c ; . o @ @ w 8 * 1 - @ t < t 2 X . 3 4 3 # @ o 3 < - 3 - # t 4 4 @ 9 c &.-.&.+.n :   ",
"  ; , ) +.E c d O . o @ @ 8 3 * - 1 @ u * t 1 o . 7 - 1 @ @ X 2 * * 1 * # t 4 5 @ 9 g +.+.) n c ;   ",
"  O O . . X O O $ . @ # + 0 4 & & 1 @ y - w w O O w > - : & @ 0 1 < < < # 0 4 3 X # $ O O O $ ; $   "
};
