/* XPM */
static char *_a0f59cf62804ba88bb9b0ec3bbed20336q1lHNiXqJfbhoN[] = {
/* columns rows colors chars-per-pixel */
"50 50 167 2 ",
"   c None",
".  c #844200",
"X  c #864500",
"o  c #8A4700",
"O  c #844800",
"+  c #8A4900",
"@  c #884A00",
"#  c #8A4B00",
"$  c #8B4B00",
"%  c #8F4A00",
"&  c #8C4C00",
"*  c #924B00",
"=  c #904E00",
"-  c #924F00",
";  c #945000",
":  c #955100",
">  c #975200",
",  c #925104",
"<  c #9A5400",
"1  c #9E5600",
"2  c #925309",
"3  c #92540C",
"4  c #97570C",
"5  c #9E5B0C",
"6  c #8D5412",
"7  c #945811",
"8  c #975A11",
"9  c #985A12",
"0  c #9C5D11",
"q  c #9E6521",
"w  c #D57000",
"e  c #D57403",
"r  c #D77503",
"t  c #DA7300",
"y  c #D97603",
"u  c #DA7703",
"i  c #DB7703",
"p  c #DC7803",
"a  c #DE7903",
"s  c #DC7904",
"d  c #DD7A07",
"f  c #DC7E0F",
"g  c #DE7E0E",
"h  c #DE7F0F",
"j  c #DA7E14",
"k  c #E07A03",
"l  c #E27B03",
"z  c #E47C03",
"x  c #E07F0E",
"c  c #DC8014",
"v  c #DE8114",
"b  c #DE8215",
"n  c #FF8707",
"m  c #F78907",
"M  c #FF8900",
"N  c #FF8B03",
"B  c DarkOrange",
"V  c #F88907",
"C  c #F88A07",
"Z  c #FF8A07",
"A  c #FF8B07",
"S  c #FF8C04",
"D  c #FD8C07",
"F  c #FD8D07",
"G  c #FF8D07",
"H  c #FF8E07",
"J  c #FF8F07",
"K  c #FB8B08",
"L  c #FF8D08",
"P  c #FF8F08",
"I  c #FF8E0A",
"U  c #FF8F0B",
"Y  c #FF8F0C",
"T  c #FF9007",
"R  c #FF9107",
"E  c #FF9307",
"W  c #FF9108",
"Q  c #E08113",
"!  c #F88E12",
"~  c #FF9211",
"^  c #FF9212",
"/  c #FF9213",
"(  c #FF9512",
")  c #FF9017",
"_  c #FF9317",
"`  c #FF9417",
"'  c #FF9917",
"]  c #FF9219",
"[  c #FF9518",
"{  c #FF9519",
"}  c #FF9618",
"|  c #FFBD00",
" . c #E18924",
".. c #FF9C27",
"X. c #FFC000",
"o. c #FFC200",
"O. c #FFC300",
"+. c #FFC600",
"@. c #FFC104",
"#. c #FFC110",
"$. c #FFC311",
"%. c #FFC410",
"&. c #FFC411",
"*. c #FFC611",
"=. c #FFC711",
"-. c #FFCA12",
";. c #FFC821",
":. c #F4A243",
">. c #F5A343",
",. c #F5A444",
"<. c #FCA540",
"1. c #FCA642",
"2. c #FCA643",
"3. c #FCA743",
"4. c #FCA744",
"5. c #FCA745",
"6. c #FCA846",
"7. c #FCA847",
"8. c #FCA948",
"9. c #FCAA4B",
"0. c #FFAD4B",
"q. c #FCAB4C",
"w. c #FFAE4C",
"e. c #FCAC4E",
"r. c #FCAC4F",
"t. c #FCAD50",
"y. c #FCAE52",
"u. c #FDAE52",
"i. c #FDB055",
"p. c #FCB25B",
"a. c #FBCE99",
"s. c #FCD09B",
"d. c #FFD19A",
"f. c #F8D2A4",
"g. c #FDD4A4",
"h. c #FFD6A5",
"j. c #F8D4A9",
"k. c #FDD6A9",
"l. c #FDD9AD",
"z. c #FFDAAD",
"x. c #FFDBB0",
"c. c #FFDEB5",
"v. c #FFDFB9",
"b. c #FFE0B9",
"n. c #FFE2B9",
"m. c #FFE3BF",
"M. c #FFE5BF",
"N. c #FFF1E0",
"B. c #FFF3E6",
"V. c #F7F3ED",
"C. c #F8F3EE",
"Z. c #F8F4EF",
"A. c #FFF7ED",
"S. c #FCF5EE",
"D. c #FDF6EE",
"F. c #FDF7EF",
"G. c #FFF7EE",
"H. c #FFF8EF",
"J. c #FFFBEE",
"K. c #FFFBEF",
"L. c #FFF9F3",
"P. c #FFFAF4",
"I. c #FDFCFB",
"U. c #FFFDFA",
"Y. c #FEFDFB",
"T. c #FFFDFB",
"R. c #FFFEFB",
/* pixels */
"                                                                                                    ",
"                                                                                                    ",
"                                                                                                    ",
"                                    H.&.&.&.&.&.;.J.    ;.&.&.&.&.&.J.                              ",
"                                    J.o.| o.o.| &.H.    &.o.| o.o.| J.                              ",
"                                    U.o.O.o.O.o.-.U.    -.O.o.o.| o.J.                              ",
"                        H.v j Q } [ ! T T J J J W _ _ ` I J I | o.o.J.                              ",
"                        D.p i p T J I I J J J A A J J A J J A | o.o.J.                              ",
"                        U.i i i J A J A J A J A J A J M J A A | O.O.U.                              ",
"                   .v v v A C J J J A J A J A J I <.3.7.I I J T T A $.&.&.&.&.&.;.                  ",
"                  d i i a J J J A J J A J A J A I 7.9.r.I J J A A n | o.o.o.o.| @.                  ",
"                  v u i a J A A J A A J A J A J I 7.9.r.I A J A J A o.O.O.O.| o.&.                  ",
"             .v v d p u p T A J A J A J J A J A J I Y W I A J A A J J J J E O.| &.                  ",
"            d p p u p u p J J J J A J A A J A J A A J M A J A J J A A A n I O.o.&.                  ",
"            v p p k k p z T T J J J J J J J J J J T J J J A J A A J A J A J O.o.@.                  ",
"            v p p r r r i m C C C V V C V C C C C C C m A J A J J A J J A T &.&.;.                  ",
"            v p p ; + & & # # & + # # # # # # # # # # O C J A J J A J A J ]                         ",
"            v p a ; @ # & & ; & + # # # + + = = ; # + O C J J A A J A J A ]                         ",
"            v p z < = > > & & ; > > > > > > = = & > > = V J A J J A J A A _ H.H.J.                  ",
"            v p p p z z p & # > E T T T J A > = > J T T A A J A A J A J A J O.o.@.                  ",
"            v p p p p z e % + > T J J A J V > = > C J A J A J A J A J A A T O.| &.                  ",
"            v p p p p p i - = 1 J J A J A V 1 > 1 C A J A J A J A J A J A T O.o.&.J.J.J.            ",
"            v p p p p u a J J J J A J A J A J J J J J A J A J A J A J A A J O.o.o.o.o.@.            ",
"            v p p p p u a J J J A J A J A J J J J A A J A J A J A J A J A J O.o.o.| | &.            ",
"            v p u h h f h J J A A J A J A J A J A / / _ J J A J A J A J A I &.&.&.&.&.;.            ",
"            v p t a.z.l.a.M A J J A J A J A J A / d.h.z./ A J A J A J A A _ J.J.J.J.J.H.            ",
"            v p t g.b.v.h.M I A A J A J A J A J / h.z.v./ A A J A J A J J `                         ",
"            c r w g.b.v.h.M J J J A J A J A J A / h.z.v.Y V V V V m J J A `                         ",
"            0 > % f.b.b.h.M A J A J A J A J A J ( h.x.n.5 < > > > ; m T J [                         ",
"            9 & o f.n.b.h.M J J J A J A J J J A / h.x.n.3 & ; & = + m T J [                         ",
"            7 & X f.b.v.h.M T T J J J J T T T T ( h.x.b.3 + + # + O C J J ]                         ",
"            j i w h.b.b.f.* > > > > > > > > > > 5 f.x.b.! C C C C m A J J `                         ",
"            v u t h.v.b.f.+ = = = = = = = = = = 4 f.x.b./ J A J A J A J A `                         ",
"            d d t k.m.M.j.. + + + + + + + + + + 2 j.c.M./ A J A J A J A J [                         ",
"            D.D.S.p.u.r.r.>.>.>.>.>.>.>.>.>.>.>.,.e.r.u.I J J A A J A J A I [ ` ..                  ",
"                  i.3.3.3.w.w.r.w.w.w.r.r.w.w.w.w.2.2.5.I J A J J A J A J A J A I                   ",
"                  9.7.9.7.w.8.8.8.q.q.q.q.8.q.8.8.q.8.t.Y I J A A J A J A J A J [                   ",
"                  L.L.P.B.I Y Y Y W Y I Y Y Y Y Y I Y Y A J A J J A J A J A J A I [ [ ..            ",
"                        I.J J M S S S S J M A M J M J M J A J A A J A J A J A J J A J I             ",
"                        D.J W W T T T T I W J J A J A J A J A J J A J A J A J A A J I [             ",
"                        H.C C C m C C C C K ' [ _ I A J A J A J A J ` [ [ [ [ [ _ J J ]             ",
"                        V.+ # + # # + # + 6 U.  U.] J A J A J A J J U.          I.J J [             ",
"                        S.= = = & ; & ; = , S.  D.` A J A J A J A J D.          I.J A I             ",
"                        V.= = = ; & ; 9 7 q Z.  H.[ J A J A J [ [ ] H.      D.D.N.` ` ..            ",
"                        V.= = = = = 9           H.` J J J A J U.          H.J J Y                   ",
"                        V.& = = = = 7           D.` A J A J A D.          D.J A [                   ",
"                        Z.= = = 9 9 q           D.[ J A [ [ [ H.          H.[ [ ..                  ",
"                        Z.= = 9                 D.[ A J U.                                          ",
"                        Z.= = 9                 D.[ J J D.                                          ",
"                        Z.9 9 q                 H...[ [ H.                                          "
};
