/* XPM */
static char *_679e2b1c12a4e8d9102d7a50009a30cYKqKhomwx1LGAWPM[] = {
/* columns rows colors chars-per-pixel */
"50 50 180 2 ",
"   c None",
".  c #010101",
"X  c #0A0603",
"o  c #0D0905",
"O  c #0C0B0B",
"+  c #130C05",
"@  c #1A0E06",
"#  c #120E0B",
"$  c #131007",
"%  c #1C1107",
"&  c #14100C",
"*  c #1C1309",
"=  c #141413",
"-  c #191715",
";  c #1B1917",
":  c #1C1B1B",
">  c #221207",
",  c #22150A",
"<  c #2B1608",
"1  c #25190C",
"2  c #2B1C0D",
"3  c #311E0E",
"4  c #241C13",
"5  c #2E1F10",
"6  c #201F1F",
"7  c #301F10",
"8  c #2E210F",
"9  c #34230F",
"0  c #39210D",
"q  c #2E2213",
"w  c #23211E",
"e  c #2A231D",
"r  c #342312",
"t  c #3A2612",
"y  c #3D2913",
"u  c #332719",
"i  c #342C1B",
"p  c #3B2B19",
"a  c #3E301C",
"s  c #242323",
"d  c #292726",
"f  c #2B2927",
"g  c #2C2B2B",
"h  c #302F2E",
"j  c #343127",
"k  c #33312E",
"l  c #343332",
"z  c #393736",
"x  c #3C3937",
"c  c #3C3B3A",
"v  c #41270E",
"b  c #49290F",
"n  c #432C15",
"m  c #492E15",
"M  c #452E19",
"N  c #492E18",
"B  c #4A3017",
"V  c #44321C",
"C  c #4B331A",
"Z  c #4E381E",
"A  c #533315",
"S  c #5A3516",
"D  c #51351B",
"F  c #543A1D",
"G  c #443621",
"H  c #4A3621",
"J  c #493822",
"K  c #553C22",
"L  c #593E22",
"P  c #403A36",
"I  c #413E3D",
"U  c #574026",
"Y  c #5C4324",
"T  c #5E462B",
"R  c #414036",
"E  c #43413E",
"W  c #48483D",
"Q  c #604524",
"!  c #654923",
"~  c #69462A",
"^  c #6D4C2E",
"/  c #75562B",
"(  c #7A5A2F",
")  c #714E30",
"_  c #6C5231",
"`  c #745332",
"'  c #795533",
"]  c #765D37",
"[  c #7C5A31",
"{  c #7E6037",
"}  c #413E40",
"|  c #444343",
" . c #494645",
".. c #4A4846",
"X. c #484748",
"o. c #4C4B4A",
"O. c #514E4D",
"+. c #52504E",
"@. c #5E584A",
"#. c #555352",
"$. c #595655",
"%. c #5C5956",
"&. c #5D5B5A",
"*. c #615E5D",
"=. c #63615E",
"-. c #656362",
";. c #696665",
":. c #6B6866",
">. c #696768",
",. c #6A6A68",
"<. c #6B6968",
"1. c #6C6968",
"2. c #6D6A68",
"3. c #6F6B6A",
"4. c #6E6C6A",
"5. c #6F6C69",
"6. c gray43",
"7. c #6D6B6A",
"8. c #706D6A",
"9. c #726C6B",
"0. c #716E6C",
"q. c #716E6E",
"w. c #726F6E",
"e. c #716E6D",
"r. c #716E6D",
"t. c #72706F",
"y. c #75716F",
"u. c #73716F",
"i. c #747270",
"p. c #767374",
"a. c #777675",
"s. c #747272",
"d. c #787573",
"f. c #7B7776",
"g. c #797572",
"h. c #7A7876",
"j. c #797877",
"k. c #7C7877",
"l. c #7C7A77",
"z. c #7E7B7A",
"x. c #7F7C7B",
"c. c #7E7D7C",
"v. c #7E7E7E",
"b. c #7C7A7A",
"n. c #805E35",
"m. c #816137",
"M. c #816039",
"N. c #807E7A",
"B. c #817E7E",
"V. c #82817F",
"C. c #838280",
"Z. c #858181",
"A. c #868484",
"S. c #858384",
"D. c #898886",
"F. c #8D8B87",
"G. c #8D8B8A",
"H. c #8C8A88",
"J. c #8E8C8A",
"K. c #8C8B8B",
"L. c #919190",
"P. c #939191",
"I. c #909290",
"U. c #949392",
"Y. c #949493",
"T. c #939192",
"R. c #999797",
"E. c #999694",
"W. c #9B9A9A",
"Q. c #9C9B99",
"!. c #9C9B9B",
"~. c #A2A1A0",
"^. c #A5A3A3",
"/. c #A5A4A5",
"(. c #A7A5A5",
"). c #A5A5A5",
"_. c #AFAEAE",
"`. c #B2B0AF",
"'. c #B4B4B4",
"]. c #C0C0C0",
/* pixels */
"                                      d g | #.c x } c z x f w                                       ",
"                                l d l -.s.;.#.c.$.).~.(.W.A.l = f f                                 ",
"                        g c $.7.z.B.c +.&.*.| -.h C.9.j.,.-.o.T.W.&.$.g s s                         ",
"                      c +.%.a.>.t.f.c *.&.=...O.l C.s.c.4.;.c (.a.X.R.T.c.g :                       ",
"                    o.g h } -.>.;.1.>.>.=.*.#.| c J.g.g.>.=.x T.$.| F.I.K.&.| d                     ",
"                X.| $.j.: s x %.&.=.0.9.5.y.1...P J.=.:.5.=.c.>.$.o.-.#.l j.H.6.&. .                ",
"              d | =.=.,.$.6 d $.%.&.;.,.y.c.1.c l V.&.5.2.$.T.+.o...&.l d.2.G.9.o.z g               ",
"            s x $.$.#.&.>.c d +.&.-.5...X. .g : w >.O.0.>.#.j.o...+...| >.i.;.&.&.z I P             ",
"          o.f d I c | O.*.$.: x +.%.X.z = = O X O s ; d d 6 z | X.+.l g.i.s.o.&.$.f x | P           ",
"        ..g | &.l | +.&.*.#. .= = 6 O . . . . . . q * % * 1 $ ; = = ;.;.-.&.+.x g l ;.;.g P         ",
"        f : d c #.o.&.&.-.O.g : O . . . . . . . o T y 9 r V * u & - l &.+.X.c z l d g.S.s.g         ",
"      x : : : 6 c %.s.4.o.l : . . . . . . . . . O { Z C C T 2 K 2 % = s  .E c c g #.g.B.g.= O.      ",
"    : : $.;.4.&.g h c } = . . . . . . . . . . . O _ A L F Q y [ y r 1 * X O 6 l &.z.;.;.*.s d *.    ",
"    | l  .*.9.-.$.X.l 6 . . . . . . . . . . . . + ` F F F Q m M.N C r 5 o X 6 | -.6.$.%.| A.,.s 6   ",
"  ..c j.-.%.-.*.*.X.g - . . . . . . . . . . . . o _ C L F Y n [ C F n p @ + = | ;.&.$.X.D.1.X.: -   ",
"  ..k O.;.S.Y.4.o.f : O . . . . . . . . . . . . o _ N F F Y n M.N C m V @ @ = s *.1.S.G.z.#.#.x ;   ",
"x k ..o.#.+.+.O.k = o X X . . . . . . . . . . . o ^ m C N Y t [ F F F F < 1 & - g #.1.9.>.&.$. .d   ",
"h d o.o.$.#.*.*.d O X X X X . . . . . . . . . . o ^ n C n K y ( C B F L 0 3 , * f l -.,.-.&.$.c 6 6 ",
"w k } | $.*.=.$.= o X o o X . . . . . . . . . . O ^ n B y U y / B C F F v r 2 % - h &.$.$.| l = O 6 ",
": = s z o.o.o.} O X X @ + X . . . . . . . . . . o ^ n B n K 0 / C C K K b t r , # 6 d : 6 O # = s = ",
"= O = = s : = 6 o X # % @ X . . . . . . . . . . o [ t n n Z 9 ! V m Z C m 7 M 2 * + : c $.>.4.&.O.O ",
"6 d x | c z h ; o o & 1 + . . . . . . . . . . . o ^ 9 y y C 0 Q n m F B b t C r 1 # f o.,.a.6.>.&.O ",
"x #.-.>.;.%.X.- X o @ + o O . . . . . . . . . . $ / y n y m 9 ! N m C N b t N y 3 # d o.j.>.-.-.&.X ",
"&.&.+.+.9.;.O.= # x =.#.d = . . . . . . . . . . o ` n y 9 n 3 F N n Z N S t v y t % f ..4.#.O.o.} . ",
"; - : s k l f # 6 d g k & X . . . . . . . . . . o ) n y t n < F M m Z M A t y n t * 6 d l s s 6 = . ",
"V.s.V.Q.A.A.v.= X & : l = X . . . . . . . . . . + ) n n t t , Q B N K n n r y m p * | I.W.A.S.A.p.X.",
"O.+.O.+.#.o.o.= = = : h 6 X . . . . . . . . . . o ' y n r y , ! M M K y m t m N M 1 | &.>.-.%.#.c g ",
"X.X.O.o.4.,. .O . O z h 6 = . . . . . . . . . . + ' y 3 y y 1 Y n M Q m A 0 C C M 1 } $.#.$.X.c | c ",
"..| ..O.t.$.l O . # R x f O . . . . . . . . . . o ~ 2 2 9 3 % V < 3 N 3 3 2 0 9 3 % x | +.X.} | O.h ",
"l I } X.c k : X X + e X.s X . . . . . . . . . . X n @ @ % % + 9 > > r > > % , > @ o g z } c | O.| s ",
"O O = = = = = . o + o . X X . . . . . . . . . . = `.t.@.W R k k P P l j f f h f s ; O O O O O O O . ",
"# = = : : : - O o + o X X X . . . . . . . . . . & y.j =.'.t.k P I O.*... .W  .U.o.w 6 ; = : : = : O ",
"= : 6 s d 6 : O o + @ * # X . . . . . . . . . . O  .; O.'.t.i - = - | O = & ; x x O d = ; 6 6 6 : . ",
"6 d h l c l s O o + $ 4 + X . . . . . . . . . . . + & &.c $.h O X X X X X X X X X . g s c $.&.&.+.. ",
"g h } %.>.o.l O X + @ * # . . . . . . . . . . . X 8 e c } o.F.r 1 1 8 $ X @ , , > @ l o.=.s.-.&.#.. ",
"g z } #.6.&.g X o + + & @ X . . . . . . . . . . X Z ; I.X.c z.V y r p 8 > 1 0 y 9 , h | $.#.o.#.X.X ",
"z x x X.>.O.d X X + + * + X . . . . . . . . . . X G 1 +.].(.j V n y B 3 @ * n B n 2 h | $.z | X.} X ",
">.c.4.z.p.$.z O X + o % o X . . . . . . . . . . o V 1 X . . # V r 9 p 2 @ , 0 N 9 ; z s.b.>.>.s.b.O ",
"l | | | g : = O X o + # + . . . . . . . . . . . X G 1 $ o o * K r r p 2 @ , y N t , l X.$.$.X.| X.O ",
"= : 6 6 = = = O X o o # + . . . . . O . . . . . O G , , * , , K 9 r p , @ 1 y C t 1 z | #.$.+.| o.O ",
"= = d l h g 6 O X o + # + X . . . . . . X X . O O a 1 , , , * F 8 r p 2 @ , 9 m t 1 E h z X.| c z . ",
"} $.*.>.&.&.} . . X o * X . . X X . O X . O O O & p * % * 1 $ a 2 9 p 1 @ * 8 9 8 * l : h l l g s . ",
"X.O.O.#.o.o.l . X X + % O X . X O O O O O O O = = u * , , , $ p 2 q u , + & 1 8 8 , z | S.*.o.X.} . ",
"= # = = 6 : O X X + o @ X . . O O O O O = O = = - q % 1 * * + u 1 2 r 2 + % 1 2 < * O - l : : 6 6 . ",
"b.s.p.S.T.6.$.# . O . X O O O O O O = = = = = : : u * 1 % % + q , 1 r 2 % * 1 2 8 & l 6._.V.C.S.!.O ",
"O.#.$.$.-.$.x O . . . O X O O = = = : : 6 s s d d u % 1 % @ + 8 , * q 2 * , 2 1 1 = l } -.-.#.X.&.O ",
"X.&.-.#.#.o.z O . O . O = = = = : : 6 s s d g h h q > , + + + 8 , , q 2 % > 1 , 8 $ l c +.>.#.o.$.O ",
"c $.*.X.O.| g O . X O O = = = 6 6 s s g g h k z z r * > + + + 8 % % 2 , % * 2 2 8 * g z o.&.o.X.| . ",
"= s d s 6 : = . . O # = : 6 6 d g g l l c c } | | q $ + + + + 9 , , 1 , @ % 2 3 2 % l f c l z c h = ",
"O . . O O O O O . O = = 6 s d g l l l } } | X.X.X.w * $ + + o n , , 1 > @ % 2 < , @ * O O # = O = X "
};
