/* XPM */
static char *_47c8c16f7d34b06e3e4dccf8a16c04a4CQorPiV9ugyX6gs[] = {
/* columns rows colors chars-per-pixel */
"50 50 167 2 ",
"   c None",
".  c #844200",
"X  c #864500",
"o  c #8A4700",
"O  c #844800",
"+  c #8A4900",
"@  c #884A00",
"#  c #8A4B00",
"$  c #8B4B00",
"%  c #8F4A00",
"&  c #8C4C00",
"*  c #924B00",
"=  c #904E00",
"-  c #924F00",
";  c #945000",
":  c #955100",
">  c #975200",
",  c #925104",
"<  c #9A5400",
"1  c #9E5600",
"2  c #925309",
"3  c #92540C",
"4  c #97570C",
"5  c #9E5B0C",
"6  c #8D5412",
"7  c #945811",
"8  c #975A11",
"9  c #985A12",
"0  c #9C5D11",
"q  c #9E6521",
"w  c #D57000",
"e  c #D57403",
"r  c #D77503",
"t  c #DA7300",
"y  c #D97603",
"u  c #DA7703",
"i  c #DB7703",
"p  c #DC7803",
"a  c #DE7903",
"s  c #DC7904",
"d  c #DD7A07",
"f  c #DC7E0F",
"g  c #DE7E0E",
"h  c #DE7F0F",
"j  c #DA7E14",
"k  c #E07A03",
"l  c #E27B03",
"z  c #E47C03",
"x  c #E07F0E",
"c  c #DC8014",
"v  c #DE8114",
"b  c #DE8215",
"n  c #FF8707",
"m  c #F78907",
"M  c #FF8900",
"N  c #FF8B03",
"B  c DarkOrange",
"V  c #F88907",
"C  c #F88A07",
"Z  c #FF8A07",
"A  c #FF8B07",
"S  c #FF8C04",
"D  c #FD8C07",
"F  c #FD8D07",
"G  c #FF8D07",
"H  c #FF8E07",
"J  c #FF8F07",
"K  c #FB8B08",
"L  c #FF8D08",
"P  c #FF8F08",
"I  c #FF8E0A",
"U  c #FF8F0B",
"Y  c #FF8F0C",
"T  c #FF9007",
"R  c #FF9107",
"E  c #FF9307",
"W  c #FF9108",
"Q  c #E08113",
"!  c #F88E12",
"~  c #FF9211",
"^  c #FF9212",
"/  c #FF9213",
"(  c #FF9512",
")  c #FF9017",
"_  c #FF9317",
"`  c #FF9417",
"'  c #FF9917",
"]  c #FF9219",
"[  c #FF9518",
"{  c #FF9519",
"}  c #FF9618",
"|  c #FFBD00",
" . c #E18924",
".. c #FF9C27",
"X. c #FFC000",
"o. c #FFC200",
"O. c #FFC300",
"+. c #FFC600",
"@. c #FFC104",
"#. c #FFC110",
"$. c #FFC311",
"%. c #FFC410",
"&. c #FFC411",
"*. c #FFC611",
"=. c #FFC711",
"-. c #FFCA12",
";. c #FFC821",
":. c #F4A243",
">. c #F5A343",
",. c #F5A444",
"<. c #FCA540",
"1. c #FCA642",
"2. c #FCA643",
"3. c #FCA743",
"4. c #FCA744",
"5. c #FCA745",
"6. c #FCA846",
"7. c #FCA847",
"8. c #FCA948",
"9. c #FCAA4B",
"0. c #FFAD4B",
"q. c #FCAB4C",
"w. c #FFAE4C",
"e. c #FCAC4E",
"r. c #FCAC4F",
"t. c #FCAD50",
"y. c #FCAE52",
"u. c #FDAE52",
"i. c #FDB055",
"p. c #FCB25B",
"a. c #FBCE99",
"s. c #FCD09B",
"d. c #FFD19A",
"f. c #F8D2A4",
"g. c #FDD4A4",
"h. c #FFD6A5",
"j. c #F8D4A9",
"k. c #FDD6A9",
"l. c #FDD9AD",
"z. c #FFDAAD",
"x. c #FFDBB0",
"c. c #FFDEB5",
"v. c #FFDFB9",
"b. c #FFE0B9",
"n. c #FFE2B9",
"m. c #FFE3BF",
"M. c #FFE5BF",
"N. c #FFF1E0",
"B. c #FFF3E6",
"V. c #F7F3ED",
"C. c #F8F3EE",
"Z. c #F8F4EF",
"A. c #FFF7ED",
"S. c #FCF5EE",
"D. c #FDF6EE",
"F. c #FDF7EF",
"G. c #FFF7EE",
"H. c #FFF8EF",
"J. c #FFFBEE",
"K. c #FFFBEF",
"L. c #FFF9F3",
"P. c #FFFAF4",
"I. c #FDFCFB",
"U. c #FFFDFA",
"Y. c #FEFDFB",
"T. c #FFFDFB",
"R. c #FFFEFB",
/* pixels */
"                                                                                                    ",
"                                                                                                    ",
"                                                                                                    ",
"                              J.&.&.&.&.&.;.    K.;.&.&.&.&.&.K.                                    ",
"                              J.X.X.X.X.X.&.    K.&.X.X.X.X.X.J.                                    ",
"                              J.X.X.X.X.O.-.    R.-.O.X.X.O.X.R.                                    ",
"                              J.X.O.| P R P ] _ _ J J J J J R _ [ [ v v v G.                        ",
"                              J.X.O.| A J J J J Z J J Z J J J J J J p i r G.                        ",
"                              R.O.O.| Z P P N N Z J J J Z J J Z J J p e p R.                        ",
"                  ;.&.&.&.&.-.#.J R R P A P 6.5.<.P Z P J Z Z J Z J Z Z J v v v  .                  ",
"                  @.X.X.X.X.O.| n Z A A P P t.q.5.P P A J J J J J Z Z J J p y p s                   ",
"                  &.X.X.O.O.O.| Z J A P A Y t.8.8.Y A P Z Z J Z J Z J J J p p p Q                   ",
"                  &.X.O.E J J J J J Z J J Z Y P P J Z J J J Z J J J Z J J s p p s v v  .            ",
"                  &.X.O.J Z Z Z Z J J Z J Z N Z Z Z J J Z J J Z Z J J Z J k r p s s s d             ",
"                  @.X.O.J Z J J Z J J Z Z J J R R J R J J R J J J R R R J k s k k p p v             ",
"                  ;.&.&.P Z Z J J J Z J J J m V V V V V V V V V V V V V V y e r r p p v             ",
"                        ] J J Z Z Z J Z J V X # # # # # # # # # # # # # # & & # - k p v             ",
"                        ] Z J J J J J J Z V O # & & - - # # # # # # - & - & & # - p p v             ",
"                  J.J.J._ Z J Z J Z Z J J V - > > & - & > > > > > > & - - > > - < k p v             ",
"                  @.X.X.J Z J Z Z J J Z Z J J J J > - > J J R J R R > # # y k k k p p v             ",
"                  &.X.O.J Z J J J J Z J J Z J J m > - > m J J Z J J > # & e k p p p p v             ",
"            J.J.J.&.X.O.R Z J Z J Z J Z Z J Z J m 1 > 1 m Z Z J J J 1 - > y k p p p p v             ",
"            @.X.X.X.X.O.J Z J Z Z Z J J J J Z Z J J R J J J J J J Z J J R p p p p p p v             ",
"            &.X.X.X.X.O.R Z Z J J J Z J J Z J J Z J Z J Z Z J Z J Z J J J p y p p p p v             ",
"            ;.&.&.&.&.*.R Z Z J Z J J Z J P ^ ^ ^ P J Z J J Z J J Z J J J x j g g p p v             ",
"            L.J.K.K.K.K.` Z J Z J J Z J Z ^ l.h.a.^ J Z Z J J Z J Z Z J M a.l.l.a.t p v             ",
"                        ` J J J Z J Z J J ^ v.x.h.^ J J Z J J Z Z J J Z M h.v.v.h.t p v             ",
"                        ` J Z J m V V V V ! v.x.h.^ J Z J J Z J J J Z J M h.v.v.f.w y j             ",
"                        ] J J V - > > > > 5 n.x.h.^ Z J Z Z J Z J J Z J N h.v.n.f.* > 0             ",
"                        ` J J m # - - & - 4 n.x.h.^ J J J J J J Z J J Z N h.v.n.f.o & 8             ",
"                        [ J J m X # # # # 3 n.x.h.^ R J J J J J J R R J N g.v.n.f.X & 8             ",
"                        ] J J J m V V V V ! v.x.f.5 > > > > > > > > > > * f.n.v.g.w e j             ",
"                        [ J Z J J Z J J Z ^ v.x.f.4 - & - & - - & - * & o f.n.v.h.t p v             ",
"                        [ J J Z J Z Z J J ^ m.c.j.2 o # o # # o # # # # . j.M.m.k.t s d             ",
"                  ..[ ] A J J Z Z J J Z Z Y t.t.q.>.>.>.>.>.>.>.>.>.>.>.:.w.t.t.p.S.F.F.            ",
"                  Y J J P J Z J J J Z J J P 5.5.5.w.w.w.w.w.w.w.w.w.w.w.w.5.5.<.y.                  ",
"                  ] Z J Z J J Z J J Z J Z Y t.8.q.8.q.q.9.9.q.8.q.9.q.q.q.8.8.8.q.                  ",
"            ..[ [ P J Z J Z Z J Z J J Z J P Y W Y Y P P P Y Y W Y Y Y P P B.P.L.P.                  ",
"            W P J J J J J J J J J Z Z J J Z N Z Z N N J Z Z N N Z N N N Z U.                        ",
"            [ P J Z Z J Z Z J Z J Z J J Z J Z J J J J Z J J R R J J R R J K.                        ",
"            [ Z Z ` [ [ [ [ [ ` Z J J Z J J Z J P _ ` ' K m m K m K m K V G.                        ",
"            [ P J R.          R.J Z Z J J Z J Z [ R.  R.6 # # # # # # # # V.                        ",
"            Y P Z R.          G.J J Z J Z Z J J [ G.  C., & & - & - - & - V.                        ",
"            ..[ [ N.G.G.      K.[ [ _ J J J Z J [ G.  Z.q 9 8 - & - - & - V.                        ",
"                  P Z J G.          R.Z J Z J J [ G.          9 - - - & - V.                        ",
"                  ] J J G.          G.J J J Z Z [ G.          8 - & - - - C.                        ",
"                  ..[ [ K.          K.[ ] _ Z J [ G.          q 8 8 & - & Z.                        ",
"                                          R.J J [ G.                8 - - C.                        ",
"                                          G.Z J [ G.                8 - & C.                        ",
"                                          K.[ [ ..G.                q 8 9 Z.                        "
};
