/* XPM */
static char *_afb61cc7a764204dc8ce914bc56d2a1Gw3kaGiI8PeTVPyC[] = {
/* columns rows colors chars-per-pixel */
"50 50 30 1 ",
"  c black",
". c #08080C",
"X c #0E0E15",
"o c #101010",
"O c #14141E",
"+ c #181818",
"@ c #1A1A27",
"# c #202020",
"$ c #202030",
"% c #262639",
"& c #2C2C42",
"* c #32324B",
"= c #383854",
"- c #3E3E5D",
"; c #444466",
": c #4A4A6F",
"> c #565681",
", c #0C0CF2",
"< c #1A1AF4",
"1 c #2929F5",
"2 c #3838F6",
"3 c #550CF2",
"4 c #5F1AF4",
"5 c #6929F5",
"6 c #7338F6",
"7 c #4747F7",
"8 c #7D47F7",
"9 c #8756F8",
"0 c #9165F9",
"q c #CECEFD",
/* pixels */
"...@@@$$$===&&&&******&&&%%%OOO000OOOXXXXXXXXXX%%%",
"...@@@$$$===&&&&******&&&%%%OOO000OOOXXXXXXXXXX%%%",
"...@@@$$$===&&&&******&&&%%%OOO000OOOXXXXXXXXXX%%%",
"###@@@@@@8888888666@@@@@@@@@&&&---;;;@@@@555;;;@@@",
"###@@@@@@8888888666@@@@@@@@@&&&---;;;@@@@555;;;@@@",
"###@@@@@@8888888666@@@@@@@@@&&&---;;;@@@@555;;;@@@",
"+++@@@@@@XXX.......OOO555OOOOOO$$$777$$$$XXX>>>OOO",
"+++@@@@@@XXX.......OOO555OOOOOO$$$777$$$$XXX>>>OOO",
"+++@@@@@@XXX.......OOO555OOOOOO$$$777$$$$XXX>>>OOO",
"...XXXOOO2222222%%%@@@444444$$$&&&***....333XXX...",
"...XXXOOO2222222%%%@@@444444$$$&&&***....333XXX...",
"...XXXOOO2222222%%%@@@444444$$$&&&***....333XXX...",
"...XXXOOO2222222%%%@@@444444$$$&&&***....333XXX...",
"$$$XXX$$$<<<1111XXXOOOOOO666OOO@@@$$$====888555...",
"$$$XXX$$$<<<1111XXXOOOOOO666OOO@@@$$$====888555...",
"$$$XXX$$$<<<1111XXXOOOOOO666OOO@@@$$$====888555...",
"OOO666XXX$$$::::555%%%@@@111qqqXXX%%%XXXX555@@@...",
"OOO666XXX$$$::::555%%%@@@111qqqXXX%%%XXXX555@@@...",
"OOO666XXX$$$::::555%%%@@@111qqqXXX%%%XXXX555@@@...",
"...444999%%%****888OOO444111%%%XXX   ....333XXX...",
"...444999%%%****888OOO444111%%%XXX   ....333XXX...",
"...444999%%%****888OOO444111%%%XXX   ....333XXX...",
"OOO...333***%%%%888$$$999888$$$XXXXXXOOOOXXX111XXX",
"OOO...333***%%%%888$$$999888$$$XXXXXXOOOOXXX111XXX",
"OOO...333***%%%%888$$$999888$$$XXXXXXOOOOXXX111XXX",
".........;;;****555@@@OOOXXX333XXXXXX<<<<222...OOO",
".........;;;****555@@@OOOXXX333XXXXXX<<<<222...OOO",
".........;;;****555@@@OOOXXX333XXXXXX<<<<222...OOO",
".........OOO.............333555XXXOOO<<<<$$$OOOOOO",
".........OOO.............333555XXXOOO<<<<$$$OOOOOO",
".........OOO.............333555XXXOOO<<<<$$$OOOOOO",
"...333444XXX.......,,,...333.............444XXX$$$",
"...333444XXX.......,,,...333.............444XXX$$$",
"...333444XXX.......,,,...333.............444XXX$$$",
"@@@555222@@@6666OOO777OOO666OOO444$$$....OOO444ooo",
"@@@555222@@@6666OOO777OOO666OOO444$$$....OOO444ooo",
"@@@555222@@@6666OOO777OOO666OOO444$$$....OOO444ooo",
"@@@555222@@@6666OOO777OOO666OOO444$$$....OOO444ooo",
"###444<<<@@@5555XXXOOOXXXXXX444666XXXXXXXXXX@@@+++",
"###444<<<@@@5555XXXOOOXXXXXX444666XXXXXXXXXX@@@+++",
"###444<<<@@@5555XXXOOOXXXXXX444666XXXXXXXXXX@@@+++",
"ooo333<<<%%%8888$$$OOO555XXXXXXXXX@@@OOOO$$$555XXX",
"ooo333<<<%%%8888$$$OOO555XXXXXXXXX@@@OOOO$$$555XXX",
"ooo333<<<%%%8888$$$OOO555XXXXXXXXX@@@OOOO$$$555XXX",
"...333333..........333444$$$&&&777666OOOO.........",
"...333333..........333444$$$&&&777666OOOO.........",
"...333333..........333444$$$&&&777666OOOO.........",
"oooooo...oooooooooo333.........oooooo....@@@OOO%%%",
"oooooo...oooooooooo333.........oooooo....@@@OOO%%%",
"oooooo...oooooooooo333.........oooooo....@@@OOO%%%"
};
